# Blender 4.5.3 LTS
# www.blender.org
mtllib palanca_prueba.mtl
o palanca4
v 0.016167 -0.044028 -0.178595
v -0.015586 -0.044028 -0.178595
v 0.016167 -0.004048 -0.182797
v -0.015586 -0.004048 -0.182797
v 0.016167 -0.019172 0.057894
v -0.015586 -0.019172 0.057894
v 0.016167 0.020808 0.053692
v -0.015586 0.020808 0.053692
v 0.041952 -0.027006 0.084647
v -0.016420 -0.045869 0.086630
v -0.052496 0.003514 0.081439
v -0.016420 0.052896 0.076249
v 0.041952 0.034033 0.078232
v 0.015847 -0.040411 0.138554
v -0.042525 -0.021549 0.136571
v -0.042525 0.039491 0.130156
v 0.015847 0.058353 0.128174
v 0.051923 0.008971 0.133364
v -0.000286 0.012344 0.165454
v -0.009769 -0.027974 0.061070
v 0.024541 -0.016887 0.059904
v 0.015058 -0.043931 0.081817
v 0.049368 0.003035 0.076881
v 0.024541 0.018991 0.056134
v -0.030974 0.001052 0.058019
v -0.040458 -0.025991 0.079932
v -0.009769 0.030078 0.054968
v -0.040458 0.032061 0.073830
v 0.015058 0.050000 0.071945
v 0.055229 -0.011697 0.109287
v 0.055229 0.024181 0.105516
v -0.000286 -0.051810 0.113503
v 0.034024 -0.040723 0.112338
v -0.055802 -0.011697 0.109287
v -0.034597 -0.040723 0.112338
v -0.034597 0.053208 0.102465
v -0.055802 0.024181 0.105516
v 0.034024 0.053208 0.102465
v -0.000286 0.064295 0.101300
v 0.039885 -0.019576 0.140972
v -0.015631 -0.037515 0.142858
v -0.049940 0.009450 0.137922
v -0.015631 0.056415 0.132985
v 0.039885 0.038476 0.134871
v 0.009196 -0.017593 0.159835
v 0.030401 0.011433 0.156784
v -0.025113 -0.006506 0.158670
v -0.025113 0.029372 0.154898
v 0.009196 0.040459 0.153734
v 0.038457 -0.062353 -0.183037
v -0.037876 -0.062353 -0.183037
v 0.038457 0.018811 -0.196077
v -0.037876 0.018811 -0.196077
v 0.016167 -0.044028 -0.178595
v -0.015586 -0.044028 -0.178595
v 0.016167 -0.004048 -0.182797
v -0.015586 -0.004048 -0.182797
v 0.016167 -0.019172 0.057894
v -0.015586 -0.019172 0.057894
v 0.016167 0.020808 0.053692
v -0.015586 0.020808 0.053692
v 0.040905 0.082950 -0.140162
v 0.084386 0.126429 -0.327096
v 0.040905 -0.048713 -0.068979
v 0.084386 -0.228934 -0.134974
v -0.040324 0.082950 -0.140162
v -0.083805 0.126429 -0.327096
v -0.040324 -0.048713 -0.068979
v -0.083805 -0.228934 -0.134974
v 0.084386 -0.087970 -0.047756
v -0.083805 -0.087970 -0.047756
v 0.084386 0.122207 -0.161386
v -0.083805 0.122207 -0.161386
v 0.004603 0.006171 -0.115936
v -0.004022 0.006171 -0.115936
v 0.004603 0.013498 -0.119897
v -0.004022 0.013498 -0.119897
v 0.040905 -0.055944 -0.082354
v -0.040324 -0.055944 -0.082354
v 0.040905 0.075720 -0.153536
v -0.040324 0.075720 -0.153536
vn 0.7002 -0.3357 -0.6300
vn 0.9050 -0.3011 -0.3006
vn 0.0247 -0.9729 -0.2299
vn -0.8897 -0.3479 -0.2956
vn -0.5746 0.7102 -0.4068
vn 0.5346 0.7391 -0.4099
vn 0.8026 -0.5931 -0.0640
vn -0.3066 -0.9515 -0.0263
vn -0.9921 -0.0131 -0.1249
vn -0.3066 0.9252 -0.2236
vn 0.8026 0.5668 -0.1859
vn 0.4089 -0.5558 0.7238
vn -0.4713 -0.5108 0.7190
vn -0.7002 0.3357 0.6301
vn 0.0385 0.8139 0.5798
vn 0.7240 0.2628 0.6377
vn 0.2681 0.2923 0.9180
vn 0.4911 0.4379 0.7530
vn 0.4090 0.6942 0.5924
vn -0.1024 0.4120 0.9054
vn -0.1876 0.6573 0.7299
vn -0.4713 0.6491 0.5971
vn -0.3313 0.0987 0.9383
vn -0.6071 0.0831 0.7903
vn -0.7002 -0.1974 0.6861
vn -0.1024 -0.2147 0.9713
vn -0.1876 -0.4911 0.8506
vn 0.0385 -0.6755 0.7363
vn 0.2681 -0.0950 0.9587
vn 0.4911 -0.2718 0.8276
vn 0.7240 -0.1245 0.6784
vn 0.8897 0.3479 0.2956
vn 0.7947 0.5938 0.1262
vn 0.5746 0.7792 0.2503
vn -0.0247 0.9729 0.2300
vn -0.3035 0.9487 0.0889
vn -0.5346 0.8081 0.2473
vn -0.9050 0.3011 0.3006
vn -0.9822 0.0196 0.1866
vn -0.9050 -0.2320 0.3566
vn -0.5346 -0.7391 0.4099
vn -0.3035 -0.9094 0.2842
vn -0.0247 -0.9038 0.4272
vn 0.5746 -0.7102 0.4069
vn 0.7947 -0.5546 0.2469
vn 0.8897 -0.2788 0.3615
vn 0.3066 0.9515 0.0263
vn 0.3035 0.9094 -0.2842
vn 0.0247 0.9038 -0.4272
vn -0.8026 0.5931 0.0640
vn -0.7947 0.5546 -0.2469
vn -0.8897 0.2788 -0.3615
vn -0.8026 -0.5668 0.1859
vn -0.7947 -0.5938 -0.1262
vn -0.5746 -0.7792 -0.2503
vn 0.3066 -0.9252 0.2236
vn 0.3035 -0.9487 -0.0889
vn 0.5346 -0.8081 -0.2473
vn 0.9921 0.0131 0.1249
vn 0.9822 -0.0196 -0.1866
vn 0.9050 0.2320 -0.3566
vn 0.4713 0.5108 -0.7190
vn 0.1876 0.4911 -0.8507
vn -0.0385 0.6755 -0.7363
vn -0.4089 0.5558 -0.7238
vn -0.4911 0.2718 -0.8276
vn -0.7240 0.1245 -0.6784
vn -0.7240 -0.2628 -0.6377
vn -0.4911 -0.4379 -0.7530
vn -0.4089 -0.6941 -0.5924
vn 0.7002 0.1974 -0.6861
vn 0.6071 -0.0830 -0.7903
vn -0.0386 -0.8138 -0.5798
vn 0.1876 -0.6572 -0.7300
vn 0.4713 -0.6491 -0.5971
vn 0.2852 0.0266 -0.9581
vn 0.3352 0.7050 -0.6250
vn 0.2976 0.8827 -0.3638
vn 0.3381 -0.7926 -0.5075
vn 0.2882 -0.2413 -0.9267
vn 0.2976 -0.9390 -0.1723
vn -0.6546 -0.5990 -0.4612
vn -0.0883 -0.3892 -0.9169
vn -0.7783 -0.5909 -0.2121
vn -0.1439 -0.1034 -0.9842
vn -0.0883 0.1900 -0.9778
vn -0.6545 0.4900 -0.5758
vn -0.7783 0.5339 -0.3304
vn -0.3729 0.1388 0.9175
vn -0.3244 0.1202 0.9383
vn -0.2733 0.1006 0.9567
vn -0.0000 -0.1586 -0.9873
vn -0.0000 -0.2356 0.9719
vn -0.0000 0.5023 0.8647
vn 0.3729 0.1388 0.9174
vn 0.3244 0.1202 0.9382
vn 0.3916 0.1460 0.9085
vn 0.2583 -0.1010 -0.9608
vn 0.2582 -0.1010 -0.9608
vn -0.0000 -0.3394 -0.9406
vn -0.0882 0.1900 -0.9778
vn -0.0000 0.1364 -0.9907
vn -0.3729 0.1388 0.9174
vn -0.3916 0.1460 0.9085
vn -0.3245 0.1202 0.9382
vn 0.2733 0.1006 0.9567
vn 1.0000 -0.0000 -0.0000
vn -1.0000 -0.0000 -0.0000
vn -0.0000 -0.9945 0.1045
vn -0.0000 0.9945 -0.1045
vn -0.0000 -0.5262 0.8504
vn -0.0000 -0.4756 -0.8797
vn -0.0000 0.9997 0.0255
vn -0.0000 0.4756 0.8797
vn -0.0000 0.8797 -0.4756
vn -0.0000 -0.8797 0.4756
vt 0.272728 0.157461
vt 0.318182 0.078731
vt 0.363637 0.157461
vt 0.318182 0.236191
vt 0.090910 0.157461
vt 0.181819 0.157461
vt 0.136365 0.236191
vt 0.818182 0.157461
vt 0.909091 0.157461
vt 0.863636 0.236191
vt 0.636364 0.157461
vt 0.727273 0.157461
vt 0.681818 0.236191
vt 0.454546 0.157461
vt 0.545455 0.157461
vt 0.500000 0.236191
vt 0.227273 0.236191
vt 0.045455 0.236191
vt 0.772727 0.236191
vt 0.590909 0.236191
vt 0.409092 0.236191
vt 0.181819 0.314921
vt 0.272728 0.314921
vt 0.227273 0.393651
vt 0.000000 0.314921
vt 0.090910 0.314921
vt 0.045455 0.393651
vt 0.727273 0.314921
vt 0.818182 0.314921
vt 0.772727 0.393651
vt 0.545455 0.314921
vt 0.636364 0.314921
vt 0.590909 0.393651
vt 0.363637 0.314921
vt 0.454546 0.314921
vt 0.409092 0.393651
vt 0.500000 0.393651
vt 0.454546 0.472382
vt 0.681818 0.393651
vt 0.636364 0.472382
vt 0.863636 0.393651
vt 0.818182 0.472382
vt 0.909091 0.314921
vt 0.136365 0.393651
vt 0.090910 0.472382
vt 0.318182 0.393651
vt 0.272728 0.472382
vt 0.954545 0.236191
vt 1.000000 0.157461
vt 0.500000 0.078731
vt 0.590909 0.078731
vt 0.681818 0.078731
vt 0.772727 0.078731
vt 0.863636 0.078731
vt 0.954545 0.078731
vt 0.409092 0.078731
vt 0.136365 0.078731
vt 0.227273 0.078731
vt 0.000000 0.000000
vt 0.729154 0.674750
vt 0.770846 0.575250
vt 0.770846 0.674750
vt 0.729154 0.575250
vt 0.810370 0.703305
vt 0.810370 0.546695
vt 0.625000 0.750000
vt 0.375000 1.000000
vt 0.375000 0.750000
vt 0.625000 0.000000
vt 0.375000 0.250000
vt 0.375000 0.000000
vt 0.375000 0.500000
vt 0.125000 0.750000
vt 0.125000 0.500000
vt 0.625000 0.500000
vt 0.625000 0.250000
vt 0.689630 0.703305
vt 0.689630 0.546695
vt 0.875000 0.750000
vt 0.875000 0.500000
vt 0.625000 1.000000
s 1
usemtl rojo
f 9/1/1 21/2/1 23/3/1
f 9/1/2 23/3/2 30/4/2
f 10/5/3 22/6/3 32/7/3
f 11/8/4 26/9/4 34/10/4
f 12/11/5 28/12/5 36/13/5
f 13/14/6 29/15/6 38/16/6
f 9/1/7 30/4/7 33/17/7
f 10/5/8 32/7/8 35/18/8
f 11/8/9 34/10/9 37/19/9
f 12/11/10 36/13/10 39/20/10
f 13/14/11 38/16/11 31/21/11
f 14/22/12 40/23/12 45/24/12
f 15/25/13 41/26/13 47/27/13
f 16/28/14 42/29/14 48/30/14
f 17/31/15 43/32/15 49/33/15
f 18/34/16 44/35/16 46/36/16
f 46/36/17 49/37/17 19/38/17
f 46/36/18 44/35/18 49/37/18
f 44/35/19 17/31/19 49/37/19
f 49/33/20 48/39/20 19/40/20
f 49/33/21 43/32/21 48/39/21
f 43/32/22 16/28/22 48/39/22
f 48/30/23 47/41/23 19/42/23
f 48/30/24 42/29/24 47/41/24
f 42/29/25 15/43/25 47/41/25
f 47/27/26 45/44/26 19/45/26
f 47/27/27 41/26/27 45/44/27
f 41/26/28 14/22/28 45/44/28
f 45/24/29 46/46/29 19/47/29
f 45/24/30 40/23/30 46/46/30
f 40/23/31 18/34/31 46/46/31
f 31/21/32 44/35/32 18/34/32
f 31/21/33 38/16/33 44/35/33
f 38/16/34 17/31/34 44/35/34
f 39/20/35 43/32/35 17/31/35
f 39/20/36 36/13/36 43/32/36
f 36/13/37 16/28/37 43/32/37
f 37/19/38 42/29/38 16/28/38
f 37/19/39 34/10/39 42/29/39
f 34/10/40 15/43/40 42/29/40
f 35/18/41 41/26/41 15/25/41
f 35/18/42 32/7/42 41/26/42
f 32/7/43 14/22/43 41/26/43
f 33/17/44 40/23/44 14/22/44
f 33/17/45 30/4/45 40/23/45
f 30/4/46 18/34/46 40/23/46
f 38/16/47 39/20/47 17/31/47
f 38/16/48 29/15/48 39/20/48
f 29/15/49 12/11/49 39/20/49
f 36/13/50 37/19/50 16/28/50
f 36/13/51 28/12/51 37/19/51
f 28/12/52 11/8/52 37/19/52
f 34/10/53 35/48/53 15/43/53
f 34/10/54 26/9/54 35/48/54
f 26/9/55 10/49/55 35/48/55
f 32/7/56 33/17/56 14/22/56
f 32/7/57 22/6/57 33/17/57
f 22/6/58 9/1/58 33/17/58
f 30/4/59 31/21/59 18/34/59
f 30/4/60 23/3/60 31/21/60
f 23/3/61 13/14/61 31/21/61
f 24/50/62 29/15/62 13/14/62
f 24/50/63 27/51/63 29/15/63
f 27/51/64 12/11/64 29/15/64
f 27/52/65 28/12/65 12/11/65
f 27/52/66 25/53/66 28/12/66
f 25/53/67 11/8/67 28/12/67
f 25/54/68 26/9/68 11/8/68
f 25/54/69 20/55/69 26/9/69
f 20/55/70 10/49/70 26/9/70
f 23/3/71 24/56/71 13/14/71
f 23/3/72 21/2/72 24/56/72
f 20/57/73 22/6/73 10/5/73
f 20/57/74 21/58/74 22/6/74
f 21/58/75 9/1/75 22/6/75
f 24/50/76 7/59/77 27/51/78
f 5/60/79 21/59/80 20/55/81
f 6/59/82 20/55/83 25/54/84
f 8/59/85 6/59/85 25/53/85
f 27/52/86 8/59/87 25/53/88
f 4/61/89 51/62/90 2/62/91
f 51/62/92 52/63/92 50/60/92
f 2/62/93 50/60/93 1/60/93
f 4/61/94 52/63/94 53/61/94
f 3/63/95 50/60/96 52/63/97
f 24/50/76 21/59/98 7/59/77
f 5/60/79 7/63/99 21/59/80
f 6/59/82 5/60/100 20/55/83
f 27/52/101 7/59/102 8/59/87
f 4/61/103 53/61/104 51/62/105
f 51/62/92 53/61/92 52/63/92
f 2/62/93 51/62/93 50/60/93
f 4/61/94 3/63/94 52/63/94
f 3/63/95 1/60/106 50/60/96
usemtl hub_lower
f 56/63/107 58/60/107 54/60/107
f 55/62/108 61/61/108 57/61/108
f 54/60/109 59/62/109 55/62/109
f 57/61/110 60/63/110 56/63/110
f 68/64/107 81/65/107 66/65/107
f 70/66/111 69/67/111 65/68/111
f 71/69/108 67/70/108 69/71/108
f 63/72/112 69/73/112 67/74/112
f 72/75/107 65/68/107 63/72/107
f 73/76/113 63/72/113 67/70/113
f 68/64/114 70/66/114 64/77/114
f 64/77/114 72/75/114 62/78/114
f 66/65/114 71/79/114 68/64/114
f 62/78/114 73/80/114 66/65/114
f 64/77/115 79/64/115 68/64/115
f 66/65/116 80/78/116 62/78/116
f 64/77/108 80/78/108 78/77/108
f 75/62/114 78/77/114 74/60/114
f 76/63/114 78/77/114 80/78/114
f 77/61/114 79/64/114 75/62/114
f 76/63/114 81/65/114 77/61/114
f 56/63/107 60/63/107 58/60/107
f 55/62/108 59/62/108 61/61/108
f 54/60/109 58/60/109 59/62/109
f 57/61/110 61/61/110 60/63/110
f 68/64/107 79/64/107 81/65/107
f 70/66/111 71/81/111 69/67/111
f 71/69/108 73/76/108 67/70/108
f 63/72/112 65/68/112 69/73/112
f 72/75/107 70/66/107 65/68/107
f 73/76/113 72/75/113 63/72/113
f 68/64/114 71/79/114 70/66/114
f 64/77/114 70/66/114 72/75/114
f 66/65/114 73/80/114 71/79/114
f 62/78/114 72/75/114 73/80/114
f 64/77/115 78/77/115 79/64/115
f 66/65/116 81/65/116 80/78/116
f 64/77/108 62/78/108 80/78/108
f 75/62/114 79/64/114 78/77/114
f 76/63/114 74/60/114 78/77/114
f 77/61/114 81/65/114 79/64/114
f 76/63/114 80/78/114 81/65/114
