# Blender 4.5.3 LTS
# www.blender.org
mtllib HITBOX_WALL14.1.mtl
o HITBOX_WALL14.1
v -8.723481 6.596427 -7.116624
v -8.723481 9.596427 -7.116624
v -9.023481 6.596427 -7.116624
v -9.023481 9.596427 -7.116624
v -9.023481 6.596427 -0.333593
v -8.723481 9.596427 -0.333593
v -9.023481 9.596427 -0.333593
v -8.723481 6.596427 -0.333593
vn -1.0000 -0.0000 -0.0000
vn -0.0000 1.0000 -0.0000
vn 1.0000 -0.0000 -0.0000
vn -0.0000 -0.0000 -1.0000
vn -0.0000 -0.0000 1.0000
vn -0.0000 -1.0000 -0.0000
vt 0.375000 0.500000
vt 0.375000 0.390625
vt 0.625000 0.390625
vt 0.625000 0.500000
vt 0.734375 0.500000
vt 0.734375 0.750000
vt 0.625000 0.750000
vt 0.375000 0.750000
vt 0.625000 0.859375
vt 0.375000 0.859375
vt 0.000000 0.000000
s 0
usemtl transparente
f 3/1/1 5/2/1 7/3/1 4/4/1
f 4/4/2 7/5/2 6/6/2 2/7/2
f 1/8/3 2/7/3 6/9/3 8/10/3
f 3/1/4 4/4/4 2/7/4 1/8/4
f 6/11/5 7/3/5 5/2/5 8/10/5
f 1/8/6 8/10/6 5/2/6 3/1/6
