# Blender 4.5.3 LTS
# www.blender.org
mtllib HITBOX_WALL28.mtl
o HITBOX_WALL28
v 6.265819 -0.335014 4.877443
v 6.747866 3.550468 6.337288
v 6.066968 -0.147711 4.458664
v 6.549015 3.737771 5.918509
v 16.874660 -0.250652 -0.334567
v 17.356705 3.634830 1.125279
v 16.675810 -0.063349 -0.753346
v 17.157856 3.822134 0.706500
vn -0.9097 -0.0423 0.4130
vn -0.4129 0.3648 -0.8345
vn 0.9097 0.0423 -0.4130
vn 0.4129 -0.3648 0.8345
vn -0.1592 -0.9272 -0.3391
vn 0.1592 0.9272 0.3391
vt 0.375000 0.000000
vt 0.625000 0.000000
vt 0.625000 0.250000
vt 0.375000 0.250000
vt 0.625000 0.500000
vt 0.375000 0.500000
vt 0.625000 0.750000
vt 0.375000 0.750000
vt 0.625000 1.000000
vt 0.375000 1.000000
vt 0.125000 0.500000
vt 0.125000 0.750000
vt 0.875000 0.500000
vt 0.875000 0.750000
s 0
usemtl transparente
f 1/1/1 2/2/1 4/3/1 3/4/1
f 3/4/2 4/3/2 8/5/2 7/6/2
f 7/6/3 8/5/3 6/7/3 5/8/3
f 5/8/4 6/7/4 2/9/4 1/10/4
f 3/11/5 7/6/5 5/8/5 1/12/5
f 8/5/6 4/13/6 2/14/6 6/7/6
