# Blender 4.5.3 LTS
# www.blender.org
mtllib HITBOX_WALL22.mtl
o HITBOX_WALL22
v -8.723480 9.614842 -0.346070
v -8.723480 12.614842 -0.346070
v -9.023480 9.614842 -0.346070
v -9.023480 12.614842 -0.346070
v -9.023481 12.614842 -4.783000
v -8.723481 9.614842 -4.783000
v -9.023481 9.614842 -4.783000
v -8.723481 12.614842 -4.783000
vn 1.0000 -0.0000 -0.0000
vn -0.0000 -0.0000 1.0000
vn -0.0000 -1.0000 -0.0000
vn -0.0000 1.0000 -0.0000
vn -0.0000 -0.0000 -1.0000
vn -1.0000 -0.0000 -0.0000
vt 0.375000 1.000000
vt 0.375000 0.892127
vt 0.625000 0.892127
vt 0.625000 1.000000
vt 0.375000 0.000000
vt 0.625000 0.000000
vt 0.625000 0.250000
vt 0.375000 0.250000
vt 0.125000 0.500000
vt 0.232873 0.500000
vt 0.232873 0.750000
vt 0.125000 0.750000
vt 0.767127 0.500000
vt 0.875000 0.500000
vt 0.875000 0.750000
vt 0.767127 0.750000
vt 0.000000 0.000000
s 0
usemtl transparente
f 1/1/1 6/2/1 8/3/1 2/4/1
f 1/5/2 2/6/2 4/7/2 3/8/2
f 3/9/3 7/10/3 6/11/3 1/12/3
f 5/13/4 4/14/4 2/15/4 8/16/4
f 5/17/5 8/3/5 6/17/5 7/17/5
f 4/17/6 5/17/6 7/17/6 3/17/6
