# Blender 4.5.3 LTS
# www.blender.org
mtllib HITBOX_WALL42.mtl
o HITBOX_WALL42
v -16.015190 9.597993 2.135274
v -16.015190 12.597993 2.135274
v -15.559131 9.597993 1.930313
v -15.559131 12.597993 1.930313
v -14.407769 9.597993 5.930370
v -14.407769 12.597993 5.930370
v -13.951710 9.597993 5.725409
v -13.951710 12.597993 5.725409
vn -0.4099 -0.0000 -0.9121
vn 0.9208 -0.0000 -0.3900
vn 0.4099 -0.0000 0.9121
vn -0.9208 -0.0000 0.3900
vn -0.0000 -1.0000 -0.0000
vn -0.0000 1.0000 -0.0000
vt 0.375000 0.000000
vt 0.625000 0.000000
vt 0.625000 0.250000
vt 0.375000 0.250000
vt 0.625000 0.500000
vt 0.375000 0.500000
vt 0.625000 0.750000
vt 0.375000 0.750000
vt 0.625000 1.000000
vt 0.375000 1.000000
vt 0.125000 0.500000
vt 0.125000 0.750000
vt 0.875000 0.500000
vt 0.875000 0.750000
s 0
usemtl transparente
f 1/1/1 2/2/1 4/3/1 3/4/1
f 3/4/2 4/3/2 8/5/2 7/6/2
f 7/6/3 8/5/3 6/7/3 5/8/3
f 5/8/4 6/7/4 2/9/4 1/10/4
f 3/11/5 7/6/5 5/8/5 1/12/5
f 8/5/6 4/13/6 2/14/6 6/7/6
