# Blender 4.5.3 LTS
# www.blender.org
mtllib HITBOX_WALL27.mtl
o HITBOX_WALL27
v 5.948103 -0.056692 -4.076262
v 6.565207 3.612428 -5.424132
v 6.141088 -0.243996 -4.497776
v 6.758191 3.425125 -5.845646
v 17.768171 -0.056692 1.335390
v 18.385275 3.612428 -0.012480
v 17.961155 -0.243996 0.913876
v 18.578259 3.425125 -0.433995
vn -0.9092 -0.0000 -0.4163
vn 0.3860 -0.3746 -0.8430
vn 0.9092 -0.0000 0.4163
vn -0.3860 0.3746 0.8430
vn -0.1559 -0.9272 0.3406
vn 0.1559 0.9272 -0.3406
vt 0.375000 0.000000
vt 0.625000 0.000000
vt 0.625000 0.250000
vt 0.375000 0.250000
vt 0.625000 0.500000
vt 0.375000 0.500000
vt 0.625000 0.750000
vt 0.375000 0.750000
vt 0.625000 1.000000
vt 0.375000 1.000000
vt 0.125000 0.500000
vt 0.125000 0.750000
vt 0.875000 0.500000
vt 0.875000 0.750000
s 0
usemtl transparente
f 1/1/1 2/2/1 4/3/1 3/4/1
f 3/4/2 4/3/2 8/5/2 7/6/2
f 7/6/3 8/5/3 6/7/3 5/8/3
f 5/8/4 6/7/4 2/9/4 1/10/4
f 3/11/5 7/6/5 5/8/5 1/12/5
f 8/5/6 4/13/6 2/14/6 6/7/6
