# Blender 4.5.3 LTS
# www.blender.org
mtllib HITBOX_WALL7.mtl
o HITBOX_WALL7
v -13.724754 3.557163 4.760672
v -13.724754 6.557163 4.760672
v -13.521386 3.557163 4.303899
v -13.521386 6.557163 4.303899
v -9.157027 3.557163 6.794354
v -9.157027 6.557163 6.794354
v -8.953659 3.557163 6.337582
v -8.953659 6.557163 6.337582
vn -0.9135 -0.0000 -0.4067
vn 0.4067 -0.0000 -0.9135
vn 0.9135 -0.0000 0.4067
vn -0.4067 -0.0000 0.9135
vn -0.0000 -1.0000 -0.0000
vn -0.0000 1.0000 -0.0000
vt 0.375000 0.000000
vt 0.625000 0.000000
vt 0.625000 0.250000
vt 0.375000 0.250000
vt 0.625000 0.500000
vt 0.375000 0.500000
vt 0.625000 0.750000
vt 0.375000 0.750000
vt 0.625000 1.000000
vt 0.375000 1.000000
vt 0.125000 0.500000
vt 0.125000 0.750000
vt 0.875000 0.500000
vt 0.875000 0.750000
s 0
usemtl transparente
f 1/1/1 2/2/1 4/3/1 3/4/1
f 3/4/2 4/3/2 8/5/2 7/6/2
f 7/6/3 8/5/3 6/7/3 5/8/3
f 5/8/4 6/7/4 2/9/4 1/10/4
f 3/11/5 7/6/5 5/8/5 1/12/5
f 8/5/6 4/13/6 2/14/6 6/7/6
