# Blender 4.5.3 LTS
# www.blender.org
mtllib HITBOX_WALL4.mtl
o HITBOX_WALL4
v 7.180520 3.543333 6.769071
v 7.180520 6.543333 6.769071
v 6.927503 3.543333 6.337814
v 6.927503 6.543333 6.337814
v 18.393198 3.543333 0.190631
v 18.393198 6.543333 0.190631
v 18.140181 3.543333 -0.240625
v 18.140181 6.543333 -0.240625
vn -0.8625 -0.0000 0.5060
vn -0.5060 -0.0000 -0.8625
vn 0.8625 -0.0000 -0.5060
vn 0.5060 -0.0000 0.8625
vn -0.0000 -1.0000 -0.0000
vn -0.0000 1.0000 -0.0000
vt 0.625000 0.000000
vt 0.375000 0.250000
vt 0.375000 0.000000
vt 0.625000 0.250000
vt 0.375000 0.500000
vt 0.625000 0.500000
vt 0.375000 0.750000
vt 0.625000 0.750000
vt 0.375000 1.000000
vt 0.125000 0.750000
vt 0.125000 0.500000
vt 0.875000 0.500000
vt 0.625000 1.000000
vt 0.875000 0.750000
s 0
usemtl transparente
f 2/1/1 3/2/1 1/3/1
f 4/4/2 7/5/2 3/2/2
f 8/6/3 5/7/3 7/5/3
f 6/8/4 1/9/4 5/7/4
f 7/5/5 1/10/5 3/11/5
f 4/12/6 6/8/6 8/6/6
f 2/1/1 4/4/1 3/2/1
f 4/4/2 8/6/2 7/5/2
f 8/6/3 6/8/3 5/7/3
f 6/8/4 2/13/4 1/9/4
f 7/5/5 5/7/5 1/10/5
f 4/12/6 2/14/6 6/8/6
