# Blender 4.5.3 LTS
# www.blender.org
mtllib HITBOX_WALL11.2.mtl
o HITBOX_WALL11.2
v 6.666900 6.543336 1.091294
v 6.666900 5.793336 1.091294
v 6.966900 6.543336 1.091294
v 6.966900 5.793336 1.091294
v 6.966900 6.543336 -0.480795
v 6.966900 5.793336 -0.480795
v 6.666900 6.543336 -0.480795
v 6.666900 5.793336 -0.480795
vn -0.0000 1.0000 -0.0000
vn -1.0000 -0.0000 -0.0000
vn 1.0000 -0.0000 -0.0000
vn -0.0000 -0.0000 1.0000
vt 0.767127 0.500000
vt 0.767127 0.750000
vt 0.734375 0.750000
vt 0.734375 0.500000
vt 0.625000 0.357873
vt 0.625000 0.390625
vt 0.562500 0.390625
vt 0.562500 0.357873
vt 0.625000 0.859375
vt 0.625000 0.892127
vt 0.562500 0.892127
vt 0.562500 0.859375
s 0
usemtl transparente
f 1/1/1 3/2/1 5/3/1 7/4/1
f 1/5/2 7/6/2 8/7/2 2/8/2
f 5/9/3 3/10/3 4/11/3 6/12/3
f 6/12/1 8/7/1 2/8/1 4/11/1
f 6/12/4 5/9/4 7/4/4 8/7/4
f 3/10/4 1/5/4 2/8/4 4/11/4
