# Blender 4.5.3 LTS
# www.blender.org
mtllib palanca7.mtl
o palanca7
v 10.438395 2.012641 3.269455
v 10.466046 2.012154 3.253856
v 10.440372 2.052730 3.271709
v 10.468024 2.052243 3.256109
v 10.322100 2.029999 3.062769
v 10.349751 2.029513 3.047169
v 10.324078 2.070088 3.065024
v 10.351730 2.069601 3.049423
v 10.286512 2.021719 3.052429
v 10.336413 2.001910 3.022688
v 10.370273 2.050873 3.007748
v 10.341298 2.100942 3.028257
v 10.289532 2.082924 3.055870
v 10.282780 2.006217 2.993159
v 10.334546 2.024235 2.965546
v 10.337564 2.085439 2.968987
v 10.287664 2.105248 2.998728
v 10.253804 2.056285 3.013667
v 10.283491 2.057840 2.959971
v 10.343145 2.020705 3.047572
v 10.313814 2.032347 3.065053
v 10.311361 2.004482 3.042273
v 10.283805 2.052101 3.061776
v 10.315590 2.068323 3.067076
v 10.363048 2.049484 3.038790
v 10.360595 2.021619 3.016010
v 10.346016 2.078914 3.050845
v 10.363466 2.079828 3.019283
v 10.316007 2.098667 3.047569
v 10.262805 2.036443 3.036971
v 10.264580 2.072418 3.038993
v 10.309167 1.995369 3.007435
v 10.279836 2.007013 3.024916
v 10.359497 2.034740 2.982423
v 10.339595 2.005961 2.991204
v 10.344240 2.100146 2.996500
v 10.361272 2.070716 2.984446
v 10.284481 2.101198 3.030212
v 10.314909 2.111789 3.013982
v 10.260611 2.027331 3.002133
v 10.308069 2.008492 2.973847
v 10.340272 2.055058 2.959640
v 10.312716 2.102676 2.979144
v 10.263482 2.085540 3.005406
v 10.278060 2.028245 2.970572
v 10.261029 2.057675 2.982626
v 10.308488 2.038836 2.954340
v 10.310263 2.074811 2.956363
v 10.280932 2.086454 2.973844
v 10.421206 1.994810 3.284914
v 10.487681 1.993640 3.247413
v 10.427438 2.076336 3.293415
v 10.493912 2.075166 3.255913
v 10.438395 2.012641 3.269455
v 10.466046 2.012154 3.253856
v 10.440372 2.052730 3.271709
v 10.468024 2.052243 3.256109
v 10.322100 2.029999 3.062769
v 10.349751 2.029513 3.047169
v 10.324078 2.070088 3.065024
v 10.351730 2.069601 3.049423
v 10.397680 2.138704 3.243705
v 10.451601 2.188737 3.426228
v 10.362983 2.004870 3.186377
v 10.357950 1.827515 3.271496
v 10.468420 2.137459 3.203799
v 10.598071 2.186159 3.343598
v 10.433722 2.003624 3.146469
v 10.504422 1.824937 3.188865
v 10.314771 1.965632 3.190644
v 10.461243 1.963053 3.108014
v 10.370160 2.179275 3.282161
v 10.516632 2.176696 3.199530
v 10.417557 2.060649 3.207481
v 10.425066 2.060517 3.203243
v 10.419488 2.068097 3.210670
v 10.426997 2.067965 3.206434
v 10.369573 1.998067 3.198270
v 10.440312 1.996822 3.158362
v 10.404270 2.131901 3.255598
v 10.475009 2.130656 3.215691
vn -0.2994 -0.3049 0.9041
vn -0.6397 -0.2775 0.7168
vn 0.0936 -0.9646 0.2464
vn 0.9209 -0.3520 -0.1676
vn 0.6988 0.7138 0.0468
vn -0.2657 0.7598 0.5934
vn -0.6662 -0.5784 0.4708
vn 0.2820 -0.9548 -0.0943
vn 0.9254 -0.0244 -0.3782
vn 0.3748 0.9270 0.0115
vn -0.6088 0.5846 0.5362
vn -0.7107 -0.5721 -0.4095
vn 0.0582 -0.5404 -0.8394
vn 0.2994 0.3049 -0.9041
vn -0.3203 0.7956 -0.5142
vn -0.9446 0.2536 -0.2085
vn -0.6853 0.2672 -0.6775
vn -0.7988 0.4214 -0.4294
vn -0.6488 0.6813 -0.3390
vn -0.3568 0.3815 -0.8527
vn -0.1969 0.6309 -0.7505
vn 0.1155 0.6226 -0.7740
vn -0.1729 0.0638 -0.9829
vn 0.1400 0.0487 -0.9889
vn 0.2730 -0.2297 -0.9342
vn -0.3878 -0.2469 -0.8881
vn -0.2537 -0.5206 -0.8152
vn -0.3940 -0.6978 -0.5982
vn -0.7044 -0.1212 -0.6993
vn -0.8339 -0.2903 -0.4694
vn -0.9637 -0.1348 -0.2303
vn -0.9209 0.3520 0.1676
vn -0.7554 0.6016 0.2597
vn -0.6251 0.7796 0.0371
vn -0.0936 0.9646 -0.2464
vn 0.2186 0.9406 -0.2598
vn 0.3422 0.7916 -0.5062
vn 0.6397 0.2775 -0.7167
vn 0.7637 -0.0014 -0.6456
vn 0.6134 -0.2570 -0.7468
vn 0.2657 -0.7598 -0.5934
vn 0.1267 -0.9225 -0.3646
vn -0.1864 -0.9171 -0.3522
vn -0.6988 -0.7138 -0.0469
vn -0.8122 -0.5499 0.1950
vn -0.9519 -0.2764 0.1323
vn -0.2820 0.9548 0.0943
vn -0.1267 0.9225 0.3646
vn 0.1864 0.9172 0.3522
vn 0.6662 0.5784 -0.4708
vn 0.8122 0.5499 -0.1950
vn 0.9519 0.2765 -0.1323
vn 0.6088 -0.5846 -0.5362
vn 0.7554 -0.6016 -0.2597
vn 0.6252 -0.7796 -0.0371
vn -0.3748 -0.9270 -0.0115
vn -0.2186 -0.9406 0.2598
vn -0.3422 -0.7916 0.5062
vn -0.9254 0.0244 0.3782
vn -0.7637 0.0014 0.6456
vn -0.6133 0.2571 0.7468
vn -0.0582 0.5404 0.8394
vn 0.2537 0.5206 0.8152
vn 0.3940 0.6978 0.5982
vn 0.7107 0.5721 0.4095
vn 0.8339 0.2903 0.4694
vn 0.9637 0.1348 0.2304
vn 0.9446 -0.2536 0.2085
vn 0.7988 -0.4214 0.4294
vn 0.6488 -0.6812 0.3390
vn -0.2730 0.2297 0.9342
vn -0.1400 -0.0487 0.9889
vn 0.3203 -0.7956 0.5142
vn 0.1969 -0.6309 0.7505
vn -0.1155 -0.6226 0.7740
vn 0.2226 0.0612 0.9730
vn 0.0137 0.7296 0.6838
vn -0.0824 0.8983 0.4317
vn -0.0432 -0.7708 0.6356
vn 0.2049 -0.2074 0.9565
vn -0.1724 -0.9284 0.3291
vn 0.7981 -0.5940 0.1012
vn 0.5284 -0.3612 0.7683
vn 0.7833 -0.5959 -0.1772
vn 0.6093 -0.0745 0.7894
vn 0.5569 0.2194 0.8010
vn 0.8518 0.4981 0.1622
vn 0.8390 0.5321 -0.1137
vn -0.1265 0.1039 -0.9865
vn -0.1789 0.0854 -0.9802
vn -0.2325 0.0660 -0.9704
vn 0.4857 -0.1273 0.8648
vn 0.4856 -0.1273 0.8648
vn -0.4772 -0.2662 -0.8375
vn -0.4261 0.4747 -0.7701
vn -0.7760 0.1154 -0.6201
vn -0.7440 0.0954 -0.6614
vn -0.7879 0.1231 -0.6034
vn 0.2476 -0.0666 0.9666
vn 0.4631 -0.3093 0.8306
vn 0.5570 0.2195 0.8010
vn 0.4866 0.1677 0.8574
vn 0.8519 0.4979 0.1622
vn -0.1059 0.1111 -0.9882
vn -0.4261 0.4746 -0.7701
vn -0.7084 0.0744 -0.7018
vn -0.8709 0.0153 0.4913
vn 0.8709 -0.0154 -0.4913
vn -0.0492 -0.9972 -0.0561
vn 0.0492 0.9972 0.0561
vn -0.8708 0.0153 0.4913
vn -0.4168 -0.5527 -0.7216
vn 0.8709 -0.0153 -0.4913
vn 0.4334 -0.4475 0.7823
vn -0.0147 0.9983 -0.0572
vn -0.4334 0.4475 -0.7823
vn 0.2318 0.8942 0.3830
vn -0.2318 -0.8942 -0.3831
vn -0.2318 -0.8942 -0.3830
vn 0.8708 -0.0153 -0.4913
vn -0.4334 0.4475 -0.7822
vn -0.4334 0.4474 -0.7823
vt 0.272728 0.157461
vt 0.318182 0.078731
vt 0.363637 0.157461
vt 0.318182 0.236191
vt 0.090910 0.157461
vt 0.181819 0.157461
vt 0.136365 0.236191
vt 0.818182 0.157461
vt 0.909091 0.157461
vt 0.863636 0.236191
vt 0.636364 0.157461
vt 0.727273 0.157461
vt 0.681818 0.236191
vt 0.454546 0.157461
vt 0.545455 0.157461
vt 0.500000 0.236191
vt 0.227273 0.236191
vt 0.045455 0.236191
vt 0.772727 0.236191
vt 0.590909 0.236191
vt 0.409092 0.236191
vt 0.181819 0.314921
vt 0.272728 0.314921
vt 0.227273 0.393651
vt 0.000000 0.314921
vt 0.090910 0.314921
vt 0.045455 0.393651
vt 0.727273 0.314921
vt 0.818182 0.314921
vt 0.772727 0.393651
vt 0.545455 0.314921
vt 0.636364 0.314921
vt 0.590909 0.393651
vt 0.363637 0.314921
vt 0.454546 0.314921
vt 0.409092 0.393651
vt 0.500000 0.393651
vt 0.454546 0.472382
vt 0.681818 0.393651
vt 0.636364 0.472382
vt 0.863636 0.393651
vt 0.818182 0.472382
vt 0.909091 0.314921
vt 0.136365 0.393651
vt 0.090910 0.472382
vt 0.318182 0.393651
vt 0.272728 0.472382
vt 0.954545 0.236191
vt 1.000000 0.157461
vt 0.500000 0.078731
vt 0.590909 0.078731
vt 0.681818 0.078731
vt 0.772727 0.078731
vt 0.863636 0.078731
vt 0.954545 0.078731
vt 0.409092 0.078731
vt 0.136365 0.078731
vt 0.227273 0.078731
vt 0.000000 0.000000
vt 0.729154 0.674750
vt 0.770846 0.575250
vt 0.770846 0.674750
vt 0.729154 0.575250
vt 0.810370 0.703305
vt 0.810370 0.546695
vt 0.625000 0.750000
vt 0.375000 1.000000
vt 0.375000 0.750000
vt 0.625000 0.000000
vt 0.375000 0.250000
vt 0.375000 0.000000
vt 0.375000 0.500000
vt 0.125000 0.750000
vt 0.125000 0.500000
vt 0.625000 0.500000
vt 0.625000 0.250000
vt 0.689630 0.703305
vt 0.689630 0.546695
vt 0.875000 0.750000
vt 0.875000 0.500000
vt 0.625000 1.000000
s 1
usemtl rojo
f 9/1/1 21/2/1 23/3/1
f 9/1/2 23/3/2 30/4/2
f 10/5/3 22/6/3 32/7/3
f 11/8/4 26/9/4 34/10/4
f 12/11/5 28/12/5 36/13/5
f 13/14/6 29/15/6 38/16/6
f 9/1/7 30/4/7 33/17/7
f 10/5/8 32/7/8 35/18/8
f 11/8/9 34/10/9 37/19/9
f 12/11/10 36/13/10 39/20/10
f 13/14/11 38/16/11 31/21/11
f 14/22/12 40/23/12 45/24/12
f 15/25/13 41/26/13 47/27/13
f 16/28/14 42/29/14 48/30/14
f 17/31/15 43/32/15 49/33/15
f 18/34/16 44/35/16 46/36/16
f 46/36/17 49/37/17 19/38/17
f 46/36/18 44/35/18 49/37/18
f 44/35/19 17/31/19 49/37/19
f 49/33/20 48/39/20 19/40/20
f 49/33/21 43/32/21 48/39/21
f 43/32/22 16/28/22 48/39/22
f 48/30/23 47/41/23 19/42/23
f 48/30/24 42/29/24 47/41/24
f 42/29/25 15/43/25 47/41/25
f 47/27/26 45/44/26 19/45/26
f 47/27/27 41/26/27 45/44/27
f 41/26/28 14/22/28 45/44/28
f 45/24/29 46/46/29 19/47/29
f 45/24/30 40/23/30 46/46/30
f 40/23/31 18/34/31 46/46/31
f 31/21/32 44/35/32 18/34/32
f 31/21/33 38/16/33 44/35/33
f 38/16/34 17/31/34 44/35/34
f 39/20/35 43/32/35 17/31/35
f 39/20/36 36/13/36 43/32/36
f 36/13/37 16/28/37 43/32/37
f 37/19/38 42/29/38 16/28/38
f 37/19/39 34/10/39 42/29/39
f 34/10/40 15/43/40 42/29/40
f 35/18/41 41/26/41 15/25/41
f 35/18/42 32/7/42 41/26/42
f 32/7/43 14/22/43 41/26/43
f 33/17/44 40/23/44 14/22/44
f 33/17/45 30/4/45 40/23/45
f 30/4/46 18/34/46 40/23/46
f 38/16/47 39/20/47 17/31/47
f 38/16/48 29/15/48 39/20/48
f 29/15/49 12/11/49 39/20/49
f 36/13/50 37/19/50 16/28/50
f 36/13/51 28/12/51 37/19/51
f 28/12/52 11/8/52 37/19/52
f 34/10/53 35/48/53 15/43/53
f 34/10/54 26/9/54 35/48/54
f 26/9/55 10/49/55 35/48/55
f 32/7/56 33/17/56 14/22/56
f 32/7/57 22/6/57 33/17/57
f 22/6/58 9/1/58 33/17/58
f 30/4/59 31/21/59 18/34/59
f 30/4/60 23/3/60 31/21/60
f 23/3/61 13/14/61 31/21/61
f 24/50/62 29/15/62 13/14/62
f 24/50/63 27/51/63 29/15/63
f 27/51/64 12/11/64 29/15/64
f 27/52/65 28/12/65 12/11/65
f 27/52/66 25/53/66 28/12/66
f 25/53/67 11/8/67 28/12/67
f 25/54/68 26/9/68 11/8/68
f 25/54/69 20/55/69 26/9/69
f 20/55/70 10/49/70 26/9/70
f 23/3/71 24/56/71 13/14/71
f 23/3/72 21/2/72 24/56/72
f 20/57/73 22/6/73 10/5/73
f 20/57/74 21/58/74 22/6/74
f 21/58/75 9/1/75 22/6/75
f 24/50/76 7/59/77 27/51/78
f 5/60/79 21/59/80 20/55/81
f 6/59/82 20/55/83 25/54/84
f 8/59/85 6/59/85 25/53/85
f 27/52/86 8/59/87 25/53/88
f 4/61/89 51/62/90 2/62/91
f 51/62/92 52/63/92 50/60/93
f 2/62/94 50/60/94 1/60/94
f 4/61/95 52/63/95 53/61/95
f 3/63/96 50/60/97 52/63/98
f 24/50/76 21/59/99 7/59/77
f 5/60/79 7/63/99 21/59/80
f 6/59/82 5/60/100 20/55/83
f 27/52/101 7/59/102 8/59/103
f 4/61/89 53/61/104 51/62/90
f 51/62/92 53/61/92 52/63/92
f 2/62/94 51/62/94 50/60/94
f 4/61/95 3/63/105 52/63/95
f 3/63/96 1/60/106 50/60/97
usemtl hub_lower.001
f 56/63/107 58/60/107 54/60/107
f 55/62/108 61/61/108 57/61/108
f 54/60/109 59/62/109 55/62/109
f 57/61/110 60/63/110 56/63/110
f 68/64/111 81/65/107 66/65/107
f 70/66/112 69/67/112 65/68/112
f 71/69/113 67/70/113 69/71/113
f 63/72/114 69/73/114 67/74/114
f 72/75/107 65/68/107 63/72/107
f 73/76/115 63/72/115 67/70/115
f 68/64/116 70/66/116 64/77/116
f 64/77/116 72/75/116 62/78/116
f 66/65/116 71/79/116 68/64/116
f 62/78/116 73/80/116 66/65/116
f 64/77/117 79/64/117 68/64/117
f 66/65/118 80/78/119 62/78/119
f 64/77/113 80/78/120 78/77/113
f 75/62/116 78/77/116 74/60/121
f 76/63/116 78/77/116 80/78/116
f 77/61/116 79/64/122 75/62/116
f 76/63/116 81/65/116 77/61/116
f 56/63/107 60/63/107 58/60/107
f 55/62/108 59/62/108 61/61/108
f 54/60/109 58/60/109 59/62/109
f 57/61/110 61/61/110 60/63/110
f 68/64/111 79/64/111 81/65/107
f 70/66/112 71/81/112 69/67/112
f 71/69/113 73/76/113 67/70/113
f 63/72/114 65/68/114 69/73/114
f 72/75/107 70/66/107 65/68/107
f 73/76/115 72/75/115 63/72/115
f 68/64/116 71/79/116 70/66/116
f 64/77/116 70/66/116 72/75/116
f 66/65/116 73/80/116 71/79/116
f 62/78/116 72/75/116 73/80/116
f 64/77/117 78/77/117 79/64/117
f 66/65/118 81/65/118 80/78/119
f 64/77/113 62/78/120 80/78/120
f 75/62/116 79/64/122 78/77/116
f 76/63/116 74/60/121 78/77/116
f 77/61/116 81/65/116 79/64/122
f 76/63/116 80/78/116 81/65/116
