# Blender 4.5.3 LTS
# www.blender.org
mtllib palanca3.mtl
o palanca3
v 0.797466 2.019378 5.336315
v 0.829220 2.019378 5.336315
v 0.797466 2.059358 5.340517
v 0.829220 2.059358 5.340517
v 0.797466 2.044234 5.099825
v 0.829220 2.044234 5.099825
v 0.797466 2.084214 5.104027
v 0.829220 2.084214 5.104027
v 0.771681 2.036400 5.073072
v 0.830053 2.017538 5.071090
v 0.866130 2.066920 5.076280
v 0.830053 2.116302 5.081470
v 0.771681 2.097439 5.079488
v 0.797787 2.022995 5.019166
v 0.856159 2.041857 5.021148
v 0.856159 2.102897 5.027564
v 0.797787 2.121759 5.029546
v 0.761710 2.072377 5.024356
v 0.813920 2.075750 4.992265
v 0.823403 2.035432 5.096650
v 0.789093 2.046519 5.097815
v 0.798576 2.019475 5.075902
v 0.764266 2.066441 5.080838
v 0.789093 2.082397 5.101586
v 0.844608 2.064458 5.099700
v 0.854091 2.037415 5.077787
v 0.823403 2.093484 5.102751
v 0.854091 2.095467 5.083889
v 0.798576 2.113406 5.085774
v 0.758405 2.051710 5.048432
v 0.758405 2.087587 5.052203
v 0.813920 2.011596 5.044216
v 0.779610 2.022683 5.045382
v 0.869435 2.051710 5.048432
v 0.848230 2.022683 5.045382
v 0.848230 2.116614 5.055254
v 0.869435 2.087587 5.052203
v 0.779610 2.116614 5.055254
v 0.813920 2.127701 5.056419
v 0.773749 2.043830 5.016747
v 0.829264 2.025891 5.014861
v 0.863574 2.072856 5.019798
v 0.829264 2.119821 5.024734
v 0.773749 2.101882 5.022849
v 0.804437 2.045813 4.997885
v 0.783232 2.074839 5.000936
v 0.838747 2.056900 4.999050
v 0.838747 2.092778 5.002821
v 0.804437 2.103865 5.003986
v 0.775177 2.001053 5.340756
v 0.851509 2.001053 5.340756
v 0.775177 2.082217 5.353796
v 0.851509 2.082217 5.353796
v 0.797466 2.019378 5.336315
v 0.829220 2.019378 5.336315
v 0.797466 2.059358 5.340517
v 0.829220 2.059358 5.340517
v 0.797466 2.044234 5.099825
v 0.829220 2.044234 5.099825
v 0.797466 2.084214 5.104027
v 0.829220 2.084214 5.104027
v 0.772728 2.146356 5.297882
v 0.729247 2.189835 5.484815
v 0.772728 2.014693 5.226699
v 0.729247 1.834472 5.292693
v 0.853958 2.146356 5.297882
v 0.897439 2.189835 5.484815
v 0.853958 2.014693 5.226699
v 0.897439 1.834472 5.292693
v 0.729247 1.975436 5.205475
v 0.897439 1.975436 5.205475
v 0.729247 2.185613 5.319105
v 0.897439 2.185613 5.319105
v 0.809031 2.069577 5.273655
v 0.817655 2.069577 5.273655
v 0.809031 2.076904 5.277616
v 0.817655 2.076904 5.277616
v 0.772728 2.007462 5.240073
v 0.853958 2.007462 5.240073
v 0.772728 2.139126 5.311255
v 0.853958 2.139126 5.311255
vn -0.7002 -0.3357 0.6301
vn -0.9050 -0.3011 0.3006
vn -0.0247 -0.9729 0.2300
vn 0.8897 -0.3479 0.2956
vn 0.5746 0.7101 0.4068
vn -0.5346 0.7391 0.4099
vn -0.8026 -0.5931 0.0640
vn 0.3066 -0.9515 0.0263
vn 0.9921 -0.0131 0.1249
vn 0.3066 0.9252 0.2236
vn -0.8026 0.5668 0.1859
vn -0.4089 -0.5558 -0.7238
vn 0.4713 -0.5108 -0.7190
vn 0.7002 0.3357 -0.6301
vn -0.0385 0.8138 -0.5798
vn -0.7240 0.2628 -0.6377
vn -0.2680 0.2923 -0.9180
vn -0.4911 0.4379 -0.7530
vn -0.4089 0.6941 -0.5924
vn 0.1024 0.4120 -0.9054
vn 0.1876 0.6572 -0.7300
vn 0.4713 0.6491 -0.5971
vn 0.3313 0.0986 -0.9384
vn 0.6071 0.0831 -0.7903
vn 0.7002 -0.1974 -0.6861
vn 0.1024 -0.2147 -0.9713
vn 0.1876 -0.4911 -0.8507
vn -0.0385 -0.6755 -0.7363
vn -0.2680 -0.0950 -0.9587
vn -0.4911 -0.2718 -0.8276
vn -0.7240 -0.1245 -0.6784
vn -0.8897 0.3479 -0.2956
vn -0.7947 0.5938 -0.1262
vn -0.5746 0.7792 -0.2503
vn 0.0247 0.9729 -0.2300
vn 0.3035 0.9487 -0.0889
vn 0.5346 0.8081 -0.2473
vn 0.9050 0.3011 -0.3006
vn 0.9822 0.0196 -0.1866
vn 0.9050 -0.2320 -0.3566
vn 0.5346 -0.7391 -0.4099
vn 0.3035 -0.9094 -0.2842
vn 0.0247 -0.9038 -0.4272
vn -0.5746 -0.7101 -0.4068
vn -0.7947 -0.5546 -0.2469
vn -0.8897 -0.2788 -0.3615
vn -0.3066 0.9515 -0.0263
vn -0.3035 0.9094 0.2842
vn -0.0247 0.9038 0.4272
vn 0.8026 0.5931 -0.0640
vn 0.7947 0.5546 0.2469
vn 0.8897 0.2788 0.3615
vn 0.8026 -0.5668 -0.1859
vn 0.7947 -0.5938 0.1262
vn 0.5746 -0.7792 0.2503
vn -0.3066 -0.9252 -0.2236
vn -0.3035 -0.9487 0.0889
vn -0.5346 -0.8081 0.2473
vn -0.9921 0.0131 -0.1249
vn -0.9822 -0.0196 0.1866
vn -0.9050 0.2320 0.3566
vn -0.4713 0.5108 0.7190
vn -0.1876 0.4911 0.8507
vn 0.0385 0.6755 0.7363
vn 0.4089 0.5558 0.7238
vn 0.4911 0.2718 0.8276
vn 0.7240 0.1245 0.6784
vn 0.7240 -0.2628 0.6377
vn 0.4911 -0.4379 0.7530
vn 0.4089 -0.6941 0.5924
vn -0.7002 0.1974 0.6861
vn -0.6071 -0.0831 0.7903
vn 0.0385 -0.8138 0.5798
vn -0.1876 -0.6572 0.7300
vn -0.4713 -0.6491 0.5971
vn -0.2851 0.0265 0.9581
vn -0.3352 0.7051 0.6249
vn -0.2976 0.8827 0.3636
vn -0.3381 -0.7926 0.5074
vn -0.2883 -0.2413 0.9266
vn -0.2976 -0.9390 0.1721
vn 0.6545 -0.5990 0.4613
vn 0.0882 -0.3891 0.9170
vn 0.7783 -0.5909 0.2122
vn 0.1439 -0.1034 0.9842
vn 0.0882 0.1900 0.9778
vn 0.6545 0.4900 0.5758
vn 0.7783 0.5339 0.3304
vn 0.3729 0.1388 -0.9174
vn 0.3244 0.1202 -0.9382
vn 0.2733 0.1005 -0.9567
vn -0.0000 -0.1586 0.9873
vn -0.0000 -0.2356 -0.9719
vn -0.0000 0.5023 -0.8647
vn -0.3729 0.1388 -0.9174
vn -0.3244 0.1202 -0.9382
vn -0.3916 0.1460 -0.9085
vn -1.0000 -0.0000 -0.0000
vn 1.0000 -0.0000 -0.0000
vn -0.0000 -0.9945 -0.1045
vn -0.0000 0.9945 0.1045
vn -0.0000 -0.5262 -0.8504
vn -0.0000 -0.4756 0.8797
vn -0.0000 0.9997 -0.0255
vn -0.0000 0.4756 -0.8797
vn -0.0000 0.8797 0.4756
vn -0.0000 -0.8797 -0.4756
vn -0.2582 -0.1010 0.9608
vn -0.0000 -0.3394 0.9407
vn -0.0000 0.1364 0.9907
vn 0.3916 0.1460 -0.9085
vn -0.2733 0.1005 -0.9567
vt 0.272728 0.157461
vt 0.318182 0.078731
vt 0.363637 0.157461
vt 0.318182 0.236191
vt 0.090910 0.157461
vt 0.181819 0.157461
vt 0.136365 0.236191
vt 0.818182 0.157461
vt 0.909091 0.157461
vt 0.863636 0.236191
vt 0.636364 0.157461
vt 0.727273 0.157461
vt 0.681818 0.236191
vt 0.454546 0.157461
vt 0.545455 0.157461
vt 0.500000 0.236191
vt 0.227273 0.236191
vt 0.045455 0.236191
vt 0.772727 0.236191
vt 0.590909 0.236191
vt 0.409092 0.236191
vt 0.181819 0.314921
vt 0.272728 0.314921
vt 0.227273 0.393651
vt 0.000000 0.314921
vt 0.090910 0.314921
vt 0.045455 0.393651
vt 0.727273 0.314921
vt 0.818182 0.314921
vt 0.772727 0.393651
vt 0.545455 0.314921
vt 0.636364 0.314921
vt 0.590909 0.393651
vt 0.363637 0.314921
vt 0.454546 0.314921
vt 0.409092 0.393651
vt 0.500000 0.393651
vt 0.454546 0.472382
vt 0.681818 0.393651
vt 0.636364 0.472382
vt 0.863636 0.393651
vt 0.818182 0.472382
vt 0.909091 0.314921
vt 0.136365 0.393651
vt 0.090910 0.472382
vt 0.318182 0.393651
vt 0.272728 0.472382
vt 0.954545 0.236191
vt 1.000000 0.157461
vt 0.500000 0.078731
vt 0.590909 0.078731
vt 0.681818 0.078731
vt 0.772727 0.078731
vt 0.863636 0.078731
vt 0.954545 0.078731
vt 0.409092 0.078731
vt 0.136365 0.078731
vt 0.227273 0.078731
vt 0.000000 0.000000
vt 0.729154 0.674750
vt 0.770846 0.575250
vt 0.770846 0.674750
vt 0.729154 0.575250
vt 0.810370 0.703305
vt 0.810370 0.546695
vt 0.625000 0.750000
vt 0.375000 1.000000
vt 0.375000 0.750000
vt 0.625000 0.000000
vt 0.375000 0.250000
vt 0.375000 0.000000
vt 0.375000 0.500000
vt 0.125000 0.750000
vt 0.125000 0.500000
vt 0.625000 0.500000
vt 0.625000 0.250000
vt 0.689630 0.703305
vt 0.689630 0.546695
vt 0.875000 0.750000
vt 0.875000 0.500000
vt 0.625000 1.000000
s 1
usemtl rojo
f 9/1/1 21/2/1 23/3/1
f 9/1/2 23/3/2 30/4/2
f 10/5/3 22/6/3 32/7/3
f 11/8/4 26/9/4 34/10/4
f 12/11/5 28/12/5 36/13/5
f 13/14/6 29/15/6 38/16/6
f 9/1/7 30/4/7 33/17/7
f 10/5/8 32/7/8 35/18/8
f 11/8/9 34/10/9 37/19/9
f 12/11/10 36/13/10 39/20/10
f 13/14/11 38/16/11 31/21/11
f 14/22/12 40/23/12 45/24/12
f 15/25/13 41/26/13 47/27/13
f 16/28/14 42/29/14 48/30/14
f 17/31/15 43/32/15 49/33/15
f 18/34/16 44/35/16 46/36/16
f 46/36/17 49/37/17 19/38/17
f 46/36/18 44/35/18 49/37/18
f 44/35/19 17/31/19 49/37/19
f 49/33/20 48/39/20 19/40/20
f 49/33/21 43/32/21 48/39/21
f 43/32/22 16/28/22 48/39/22
f 48/30/23 47/41/23 19/42/23
f 48/30/24 42/29/24 47/41/24
f 42/29/25 15/43/25 47/41/25
f 47/27/26 45/44/26 19/45/26
f 47/27/27 41/26/27 45/44/27
f 41/26/28 14/22/28 45/44/28
f 45/24/29 46/46/29 19/47/29
f 45/24/30 40/23/30 46/46/30
f 40/23/31 18/34/31 46/46/31
f 31/21/32 44/35/32 18/34/32
f 31/21/33 38/16/33 44/35/33
f 38/16/34 17/31/34 44/35/34
f 39/20/35 43/32/35 17/31/35
f 39/20/36 36/13/36 43/32/36
f 36/13/37 16/28/37 43/32/37
f 37/19/38 42/29/38 16/28/38
f 37/19/39 34/10/39 42/29/39
f 34/10/40 15/43/40 42/29/40
f 35/18/41 41/26/41 15/25/41
f 35/18/42 32/7/42 41/26/42
f 32/7/43 14/22/43 41/26/43
f 33/17/44 40/23/44 14/22/44
f 33/17/45 30/4/45 40/23/45
f 30/4/46 18/34/46 40/23/46
f 38/16/47 39/20/47 17/31/47
f 38/16/48 29/15/48 39/20/48
f 29/15/49 12/11/49 39/20/49
f 36/13/50 37/19/50 16/28/50
f 36/13/51 28/12/51 37/19/51
f 28/12/52 11/8/52 37/19/52
f 34/10/53 35/48/53 15/43/53
f 34/10/54 26/9/54 35/48/54
f 26/9/55 10/49/55 35/48/55
f 32/7/56 33/17/56 14/22/56
f 32/7/57 22/6/57 33/17/57
f 22/6/58 9/1/58 33/17/58
f 30/4/59 31/21/59 18/34/59
f 30/4/60 23/3/60 31/21/60
f 23/3/61 13/14/61 31/21/61
f 24/50/62 29/15/62 13/14/62
f 24/50/63 27/51/63 29/15/63
f 27/51/64 12/11/64 29/15/64
f 27/52/65 28/12/65 12/11/65
f 27/52/66 25/53/66 28/12/66
f 25/53/67 11/8/67 28/12/67
f 25/54/68 26/9/68 11/8/68
f 25/54/69 20/55/69 26/9/69
f 20/55/70 10/49/70 26/9/70
f 23/3/71 24/56/71 13/14/71
f 23/3/72 21/2/72 24/56/72
f 20/57/73 22/6/73 10/5/73
f 20/57/74 21/58/74 22/6/74
f 21/58/75 9/1/75 22/6/75
f 24/50/76 7/59/77 27/51/78
f 5/60/79 21/59/80 20/55/81
f 6/59/82 20/55/83 25/54/84
f 8/59/85 6/59/85 25/53/85
f 27/52/86 8/59/87 25/53/88
f 4/61/89 51/62/90 2/62/91
f 51/62/92 52/63/92 50/60/92
f 2/62/93 50/60/93 1/60/93
f 4/61/94 52/63/94 53/61/94
f 3/63/95 50/60/96 52/63/97
f 24/50/76 21/59/108 7/59/77
f 5/60/79 7/63/108 21/59/80
f 6/59/82 5/60/109 20/55/83
f 27/52/86 7/59/110 8/59/87
f 4/61/89 53/61/111 51/62/90
f 51/62/92 53/61/92 52/63/92
f 2/62/93 51/62/93 50/60/93
f 4/61/94 3/63/94 52/63/94
f 3/63/95 1/60/112 50/60/96
usemtl hub_lower
f 56/63/98 58/60/98 54/60/98
f 55/62/99 61/61/99 57/61/99
f 54/60/100 59/62/100 55/62/100
f 57/61/101 60/63/101 56/63/101
f 68/64/98 81/65/98 66/65/98
f 70/66/102 69/67/102 65/68/102
f 71/69/99 67/70/99 69/71/99
f 63/72/103 69/73/103 67/74/103
f 72/75/98 65/68/98 63/72/98
f 73/76/104 63/72/104 67/70/104
f 68/64/105 70/66/105 64/77/105
f 64/77/105 72/75/105 62/78/105
f 66/65/105 71/79/105 68/64/105
f 62/78/105 73/80/105 66/65/105
f 64/77/106 79/64/106 68/64/106
f 66/65/107 80/78/107 62/78/107
f 64/77/99 80/78/99 78/77/99
f 75/62/105 78/77/105 74/60/105
f 76/63/105 78/77/105 80/78/105
f 77/61/105 79/64/105 75/62/105
f 76/63/105 81/65/105 77/61/105
f 56/63/98 60/63/98 58/60/98
f 55/62/99 59/62/99 61/61/99
f 54/60/100 58/60/100 59/62/100
f 57/61/101 61/61/101 60/63/101
f 68/64/98 79/64/98 81/65/98
f 70/66/102 71/81/102 69/67/102
f 71/69/99 73/76/99 67/70/99
f 63/72/103 65/68/103 69/73/103
f 72/75/98 70/66/98 65/68/98
f 73/76/104 72/75/104 63/72/104
f 68/64/105 71/79/105 70/66/105
f 64/77/105 70/66/105 72/75/105
f 66/65/105 73/80/105 71/79/105
f 62/78/105 72/75/105 73/80/105
f 64/77/106 78/77/106 79/64/106
f 66/65/107 81/65/107 80/78/107
f 64/77/99 62/78/99 80/78/99
f 75/62/105 79/64/105 78/77/105
f 76/63/105 74/60/105 78/77/105
f 77/61/105 81/65/105 79/64/105
f 76/63/105 80/78/105 81/65/105
