# Blender 4.5.3 LTS
# www.blender.org
mtllib pistass.mtl
o pistas
v -8.756124 4.963618 4.209355
v -8.756124 4.963618 3.159355
v -8.756124 6.013618 4.209355
v -8.756124 6.013618 3.159355
v -8.756124 4.994202 -2.917245
v -8.756124 4.994202 -3.917245
v -8.756124 5.994202 -2.917245
v -8.756124 5.994202 -3.917245
v 6.676970 4.983805 -3.913165
v 6.676970 4.983805 -2.913165
v 6.676970 5.983805 -3.913165
v 6.676970 5.983805 -2.913165
v 6.678789 4.991827 3.189612
v 6.678789 4.991827 4.189612
v 6.678789 5.991827 3.189612
v 6.678789 5.991827 4.189613
vn 1.0000 -0.0000 -0.0000
vn -1.0000 -0.0000 -0.0000
vt 1.000000 0.000000
vt 0.000000 1.000000
vt 0.000000 0.000000
vt 1.000000 1.000000
s 0
usemtl Material.003
f 2/1/1 3/2/1 1/3/1
f 2/1/1 4/4/1 3/2/1
usemtl Material.001
f 14/1/2 15/2/2 13/3/2
f 14/1/2 16/4/2 15/2/2
usemtl Material.004
f 10/1/2 11/2/2 9/3/2
f 10/1/2 12/4/2 11/2/2
usemtl Material.002
f 6/1/1 7/2/1 5/3/1
f 6/1/1 8/4/1 7/2/1
